<svg xmlns="http://www.w3.org/2000/svg" viewBox="0 0 512 512">
  <path d="M256 64c-26.5 0-48 21.5-48 48s21.5 48 48 48 48-21.5 48-48-21.5-48-48-48zM180.1 180.2c-12.6 2.5-24 11-30.1 22.5L131 236.5c-8.2 15.5-1.6 34.7 13.9 43 15.5 8.2 34.7 1.6 43-13.9l11.9-22.6c3.8-7.2 10.7-12 18.7-12.8l37.5 37.5-37.5 161.1c-4.1 17.6 6.9 35.2 24.5 39.3 17.6 4.1 35.2-6.9 39.3-24.5L296 358.3l25.5 25.5L336 443.5c4.1 17.6 21.7 28.6 39.3 24.5s28.6-21.7 24.5-39.3l-20-86c-1-4.3-3-8.3-5.9-11.7l-51.8-60.4 36.7-36.7c43-43 43-112.7 0-155.7-43-43-112.7-43-155.7 0l-23.3 23.3 10.1 9.2c8.2 8.2 21.4 8.2 29.6 0l23.3-23.3c25.8-25.8 67.5-25.8 93.3 0s25.8 67.5 0 93.3L290 242.7l-48-48.6c-10.1-10.2-25-14.4-39.5-11.6l-22.4 4.2v-6.3z" fill="#000"/>
</svg>
